# xmcd CD database file
# Copyright (C) 1993-1998 Ti Kan
#
# Track frame offsets:
#  183
#  10033
#  32438
#  50588
#  74738
#  102435
#  103065
#  126870
#  153350
#  157615
#  169330
#  210840
#  215070
#  224975
#  235240
#  251055
#  268733
#  291340
#
# Disc length: 4173 seconds
#
# Revision: 1
# Processed by: cddbd v1.4b41PL1 Copyright (c) Steve Scherf et al.
# Submitted via: CDWizzard Release:4.35
#
DISCID=11104b12
DTITLE=James Brown - James Brown -The Original Showman - Live
DYEAR=1900
DGENRE=
TTITLE0=Give It Up Or Turn It Loose
TTITLE1=It's Too Funkt In Here
TTITLE2=Gonna Have A Funky Good Time
TTITLE3=Try Me 
TTITLE4=Sex Machine
TTITLE5=Get On The Good Foot
TTITLE6=Get Uo Off That Thing
TTITLE7=Georgia On My Mind
TTITLE8=Hot Pants
TTITLE9=I Got The Feelin'
TTITLE10=It's A Man's World
TTITLE11=Cold Sweat
TTITLE12=I Can't Stand It
TTITLE13=Papa's Got A Brand New Bag
TTITLE14=I Got You (I Feel Good)
TTITLE15=Please, Please, Please
TTITLE16=Body Heat
TTITLE17=Jam
EXTD=
EXTT0=
EXTT1=
EXTT2=
EXTT3=
EXTT4=
EXTT5=
EXTT6=
EXTT7=
EXTT8=
EXTT9=
EXTT10=
EXTT11=
EXTT12=
EXTT13=
EXTT14=
EXTT15=
EXTT16=
EXTT17=
PLAYORDER=
